<?xml version="1.0" encoding="UTF-8"?>
<svg version="1.1" xmlns="http://www.w3.org/2000/svg" width="512" height="512">
<path d="M0 0 C168.96 0 337.92 0 512 0 C512 115.83 512 231.66 512 351 C418.5 350.3125 418.5 350.3125 389.16601562 349.9465332 C380.35686898 349.92960357 380.35686898 349.92960357 371.54772949 349.93791199 C367.67473732 349.94089858 363.80651619 349.89168951 359.93444824 349.8079071 C332.86015867 349.25441449 314.45326254 352.37170207 292.40483093 368.56711388 C286.85589957 372.60791817 280.8995714 376.0028208 275 379.5 C272.70467062 380.88991262 270.41480964 382.28849099 268.125 383.6875 C260.45266045 388.35228245 252.72689612 392.92637247 245 397.5 C234.77962771 403.55074652 224.58554638 409.64113003 214.4375 415.8125 C213.86800629 416.15876434 213.29851257 416.50502869 212.71176147 416.86178589 C206.52876527 420.62260474 200.35293715 424.39508975 194.1796875 428.171875 C193.10533447 428.82824951 192.03098145 429.48462402 190.92407227 430.16088867 C188.89464163 431.40115821 186.86642412 432.6434156 184.83959961 433.88793945 C183.95022705 434.431521 183.06085449 434.97510254 182.14453125 435.53515625 C180.97434448 436.25264038 180.97434448 436.25264038 179.78051758 436.98461914 C178 438 178 438 177 438 C177 409.29 177 380.58 177 351 C118.59 351 60.18 351 0 351 C0 235.17 0 119.34 0 0 Z " fill="#FCCA02" transform="translate(0,37)"/>
<path d="M0 0 C84.48 0 168.96 0 256 0 C256 115.83 256 231.66 256 351 C162.5 350.3125 162.5 350.3125 133.16601562 349.9465332 C124.35686898 349.92960357 124.35686898 349.92960357 115.54772949 349.93791199 C111.67473732 349.94089858 107.80651619 349.89168951 103.93444824 349.8079071 C76.91322482 349.25564927 58.55470134 352.34150754 36.54428101 368.47945213 C30.97296954 372.52158682 25.01501704 375.96717537 19.10678291 379.48763525 C16.2183787 381.2179331 13.35427632 382.98676664 10.48828125 384.75390625 C6.9599959 386.92657295 3.89983698 388.44006521 0 390 C0 261.3 0 132.6 0 0 Z " fill="#FCAD02" transform="translate(256,37)"/>
<path d="M0 0 C25.86321881 -0.899736 47.49234907 5.38971664 66.99804688 22.96044922 C68.89001885 24.96349587 69.84009631 26.61080353 70.99414062 29.07373047 C68.26792741 31.66019548 65.53765197 34.24233299 62.80664062 36.82373047 C61.65325195 37.91814453 61.65325195 37.91814453 60.4765625 39.03466797 C56.76069493 42.54321246 53.06550972 45.97328908 48.99414062 49.07373047 C45.88940771 47.6605897 43.48608546 45.93879896 40.86914062 43.76123047 C36.23642144 40.0977952 31.42555837 37.37927664 25.99414062 35.07373047 C25.13304687 34.70634766 24.27195312 34.33896484 23.38476562 33.96044922 C9.98946779 30.45730105 -6.62793453 31.87275491 -18.72460938 38.58154297 C-29.53144171 45.57994343 -37.2065564 55.50534212 -40.61328125 67.98095703 C-41.44432977 72.41114851 -41.33293583 76.89376821 -41.31835938 81.38623047 C-41.33447266 82.36785156 -41.35058594 83.34947266 -41.3671875 84.36083984 C-41.37565946 97.16196413 -37.07473754 109.1007085 -28.13085938 118.44873047 C-24.36869367 121.92695914 -20.59803224 124.78983565 -16.00585938 127.07373047 C-15.22597656 127.46689453 -14.44609375 127.86005859 -13.64257812 128.26513672 C-6.62730295 131.17886172 0.18798195 131.46064991 7.68164062 131.51123047 C9.14259155 131.52633667 9.14259155 131.52633667 10.63305664 131.54174805 C16.93771422 131.46620146 22.16352744 130.45765783 27.99414062 128.07373047 C28.68693115 127.79360107 29.37972168 127.51347168 30.09350586 127.22485352 C35.5978592 124.90072823 39.48245325 121.06297597 43.69726562 116.90185547 C45.99414062 115.07373047 45.99414062 115.07373047 49.99414062 115.07373047 C52.29101563 117.01513672 52.29101563 117.01513672 54.74414062 119.63623047 C58.45311592 123.50408359 62.22060503 127.1325426 66.30273438 130.60107422 C67.94197852 132.0283145 69.47639539 133.51885385 70.99414062 135.07373047 C67.07401616 144.65380992 54.8920217 151.8566741 45.99414062 156.07373047 C20.27809356 166.41084906 -6.58360647 167.27579528 -32.31835938 156.73388672 C-52.86393607 147.79529521 -67.22769159 131.16565211 -75.36132812 110.65576172 C-81.68514071 92.27789481 -82.12271038 67.95216282 -74.00585938 50.07373047 C-73.53664063 48.98447266 -73.06742187 47.89521484 -72.58398438 46.77294922 C-69.52393337 40.16751654 -65.67509122 34.62777109 -61.00585938 29.07373047 C-60.40773438 28.27580078 -59.80960938 27.47787109 -59.19335938 26.65576172 C-46.62066143 11.8154879 -26.19060807 2.68520548 -7.13085938 0.26123047 C-4.75407304 0.1278394 -2.37861188 0.08743194 0 0 Z " fill="#454543" transform="translate(179.005859375,130.92626953125)"/>
<path d="M0 0 C4.539045 3.79013514 8.84615643 7.79273079 13 12 C8.71782288 21.54135581 -2.09614111 28.47931641 -10 35 C-10.87398437 34.12988281 -10.87398437 34.12988281 -11.765625 33.2421875 C-17.95649671 27.34333804 -24.1067159 23.28886837 -32 20 C-32.86753906 19.62488281 -33.73507812 19.24976563 -34.62890625 18.86328125 C-39.64292425 17.57927432 -44.53178129 17.63136116 -49.6875 17.625 C-50.71294922 17.60050781 -51.73839844 17.57601562 -52.79492188 17.55078125 C-64.84238648 17.50511809 -76.17489219 21.88051831 -85.19140625 29.96484375 C-96.75382441 42.09770379 -99.78562497 56.12328144 -99.44140625 72.3203125 C-98.76002481 85.07218464 -93.26908215 96.22747754 -83.94140625 104.91796875 C-70.17324108 116.428253 -55.24714849 117.31401234 -38 116 C-28.45857256 114.42446707 -18.24253752 108.28021444 -12.1953125 100.75390625 C-11.80085938 100.17511719 -11.40640625 99.59632813 -11 99 C-7.76840114 100.42845056 -5.5353563 102.18039293 -2.99609375 104.625 C-1.88524414 105.68460938 -1.88524414 105.68460938 -0.75195312 106.765625 C0.01181641 107.50296875 0.77558594 108.2403125 1.5625 109 C3.08277087 110.46027697 4.60483255 111.91869244 6.12890625 113.375 C6.79994385 114.02210938 7.47098145 114.66921875 8.16235352 115.3359375 C10.10164262 117.17416433 10.10164262 117.17416433 13 119 C11.95500458 125.82320537 5.31341148 130.29814456 0.07421875 134.15234375 C-10.79864518 141.20684201 -23.10043963 146.26190989 -36 148 C-37.22976563 148.17273438 -38.45953125 148.34546875 -39.7265625 148.5234375 C-62.96582794 151.35676961 -85.59777306 146.34531413 -105 133 C-121.10142982 120.36108115 -133.26312939 102.91716666 -136.58203125 82.40234375 C-139.21918398 58.73501544 -136.08071887 36.47639733 -121.5625 17.0625 C-120.39898323 15.68767189 -119.21102645 14.33316861 -118 13 C-117.35804688 12.26652344 -116.71609375 11.53304687 -116.0546875 10.77734375 C-87.84366191 -19.56772621 -33.4262981 -24.68923873 0 0 Z " fill="#2A2A28" transform="translate(399,146)"/>
</svg>
